<svg width="24" height="24" viewBox="0 0 24 24" fill="none" xmlns="http://www.w3.org/2000/svg">
<path d="M17.7 6.3C17.1205 6.3 16.5885 5.9675 16.3225 5.4545L15.6385 4.077C15.2015 3.2125 14.0615 2.5 13.0925 2.5H10.917C9.93844 2.5 8.79844 3.2125 8.36144 4.077L7.67744 5.4545C7.41144 5.9675 6.87944 6.3 6.29994 6.3C4.23844 6.3 2.60444 8.0385 2.73744 10.0905L3.23144 17.9375C3.34544 19.8945 4.39994 21.5 7.02194 21.5H16.978C19.6 21.5 20.645 19.8945 20.7685 17.9375L21.2625 10.0905C21.3955 8.0385 19.7615 6.3 17.7 6.3ZM10.575 7.4875H13.425C13.8145 7.4875 14.1375 7.8105 14.1375 8.2C14.1375 8.5895 13.8145 8.9125 13.425 8.9125H10.575C10.1855 8.9125 9.86244 8.5895 9.86244 8.2C9.86244 7.8105 10.1855 7.4875 10.575 7.4875ZM12 17.814C10.233 17.814 8.78894 16.3795 8.78894 14.603C8.78894 12.8265 10.2235 11.392 12 11.392C13.7765 11.392 15.211 12.8265 15.211 14.603C15.211 16.3795 13.767 17.814 12 17.814Z" fill="#56150A"/>
</svg>
